<svg width="19" height="24" viewBox="0 0 19 24" fill="none" xmlns="http://www.w3.org/2000/svg">
<path fill-rule="evenodd" clip-rule="evenodd" d="M16.2909 3.84C16.8035 3.83988 17.2257 4.24237 17.2501 4.7543L18.1188 22.9943C18.1313 23.2566 18.0358 23.5125 17.8546 23.7025C17.6734 23.8925 17.4223 24 17.1597 24H1.79974C1.53726 23.9999 1.28627 23.8923 1.10518 23.7023C0.924084 23.5123 0.828683 23.2565 0.841177 22.9943L1.70979 4.7543C1.73418 4.24241 2.15635 3.83993 2.66883 3.84H5.68639C5.68639 1.71923 7.40562 0 9.52639 0C11.6472 0 13.3664 1.71923 13.3664 3.84H16.2909ZM12.4064 3.84C12.4046 2.25017 11.1162 0.961799 9.52639 0.96C7.93655 0.961799 6.64819 2.25017 6.64639 3.84H12.4064ZM2.66883 4.8H5.6864V8.16C5.6864 8.4251 5.90131 8.64 6.1664 8.64C6.4315 8.64 6.6464 8.4251 6.6464 8.16V4.8H12.4064V8.16C12.4064 8.4251 12.6213 8.64 12.8864 8.64C13.1515 8.64 13.3664 8.4251 13.3664 8.16V4.8H16.2799L16.9744 19.2H1.98311L2.66883 4.8ZM1.93693 20.16L1.79974 23.04H17.1597L17.0206 20.16H1.93693Z" fill="#333333"/>
</svg>
