<svg width="57" height="33" viewBox="0 0 57 33" fill="none" xmlns="http://www.w3.org/2000/svg">
<g clip-path="url(#clip0_1_45)">
<path d="M14.9517 19.921C13.5384 18.9344 11.9886 20.2055 11.9886 20.2055C9.8347 21.6359 6.95395 21.1843 5.33398 19.1622C3.71401 17.1402 3.88521 14.2098 5.72946 12.3929C7.57371 10.576 10.4872 10.4675 12.4597 12.1423C13.2256 12.6118 14.1899 12.6026 14.9469 12.1186C14.9469 12.1186 16.6522 10.6957 14.2497 8.79843H14.3204C10.6544 6.17949 5.61605 6.77102 2.64685 10.169C-0.322342 13.5669 -0.263461 18.6739 2.78328 22.0015C5.83001 25.3291 10.8806 25.8027 14.4853 23.0988C16.5392 21.2158 14.9517 19.921 14.9517 19.921Z" fill="#D84727"/>
<path d="M40.7334 19.9211C39.3202 18.9345 37.775 20.2056 37.775 20.2056C35.6227 21.631 32.7472 21.1777 31.1306 19.1582C29.514 17.1386 29.685 14.2131 31.5256 12.3983C33.3662 10.5835 36.2746 10.4728 38.2461 12.1424C39.0109 12.6099 39.9728 12.6007 40.7287 12.1187C40.7287 12.1187 42.434 10.6958 40.0315 8.79853H40.1021C36.4367 6.18594 31.4037 6.78108 28.4392 10.1777C25.4746 13.5743 25.5352 18.6762 28.5794 22.0006C31.6237 25.3249 36.6693 25.7989 40.2717 23.0989C42.3209 21.2159 40.7334 19.9211 40.7334 19.9211Z" fill="#D84727"/>
<path d="M20.9295 5.9005C21.9546 5.9005 22.7856 4.89393 22.7856 3.65227C22.7856 2.41062 21.9546 1.40405 20.9295 1.40405C19.9045 1.40405 19.0735 2.41062 19.0735 3.65227C19.0735 4.89393 19.9045 5.9005 20.9295 5.9005Z" fill="#D84727"/>
<path d="M22.7856 9.1969C22.7359 8.20265 21.9207 7.42224 20.932 7.42224C19.9432 7.42224 19.1281 8.20265 19.0783 9.1969V22.6578C19.0438 23.347 19.3893 23.9993 19.9771 24.3544C20.5648 24.7094 21.2991 24.7094 21.8868 24.3544C22.4746 23.9993 22.8202 23.347 22.7856 22.6578V9.1969Z" fill="#D84727"/>
<path d="M46.8341 5.9005C47.8591 5.9005 48.6901 4.89393 48.6901 3.65227C48.6901 2.41062 47.8591 1.40405 46.8341 1.40405C45.809 1.40405 44.978 2.41062 44.978 3.65227C44.978 4.89393 45.809 5.9005 46.8341 5.9005Z" fill="#D84727"/>
<path d="M48.6899 9.1969C48.6401 8.20265 47.825 7.42224 46.8363 7.42224C45.8475 7.42224 45.0324 8.20265 44.9826 9.1969V22.6578C44.9481 23.347 45.2936 23.9993 45.8814 24.3544C46.4691 24.7094 47.2034 24.7094 47.7911 24.3544C48.3789 23.9993 48.7245 23.347 48.6899 22.6578V9.1969Z" fill="#D84727"/>
<path d="M56.7075 2.34314C56.742 1.65389 56.3965 1.00159 55.8087 0.646538C55.221 0.291486 54.4867 0.291486 53.899 0.646538C53.3112 1.00159 52.9656 1.65389 53.0002 2.34314V9.19689V22.6578C52.9656 23.347 53.3112 23.9993 53.899 24.3544C54.4867 24.7094 55.221 24.7094 55.8087 24.3544C56.3965 23.9993 56.742 23.347 56.7075 22.6578V9.19689V2.34314Z" fill="#D84727"/>
<path d="M26.5823 27.8183C25.7438 27.0214 24.3023 27.5384 24.3023 27.5384C23.4095 28.4407 22.1967 28.9478 20.9318 28.9478C19.6669 28.9478 18.454 28.4407 17.5612 27.5384C17.5612 27.5384 16.115 27.0214 15.2765 27.8183C14.6923 28.4165 14.5538 29.324 14.9326 30.0712C16.5103 31.6966 18.6722 32.6129 20.9294 32.6129C23.1866 32.6129 25.3485 31.6966 26.9262 30.0712C27.3096 29.3247 27.1707 28.4144 26.5823 27.8183Z" fill="#D84727"/>
</g>
<defs>
<clipPath id="clip0_1_45">
<rect width="57" height="33" fill="white"/>
</clipPath>
</defs>
</svg>
