<svg width="27" height="27" viewBox="0 0 27 27" fill="none" xmlns="http://www.w3.org/2000/svg">
<path fill-rule="evenodd" clip-rule="evenodd" d="M18.5236 17.7717L26.2906 25.5388C26.4921 25.7475 26.4892 26.0792 26.2841 26.2843C26.0789 26.4895 25.7473 26.4923 25.5386 26.2908L17.7716 18.5236C13.6848 22.2028 7.41061 21.956 3.62549 17.967C-0.159627 13.978 -0.0773116 7.69964 3.81109 3.81129C7.69948 -0.0770562 13.978 -0.15937 17.967 3.6257C21.956 7.41078 22.2029 13.6849 18.5236 17.7717ZM1.98363 11.0244C1.98363 16.0174 6.0313 20.065 11.0244 20.065C16.015 20.0592 20.0592 16.015 20.0651 11.0244C20.0651 6.03141 16.0174 1.98379 11.0244 1.98379C6.0313 1.98379 1.98363 6.03141 1.98363 11.0244Z" fill="black"/>
</svg>
